<svg xmlns="http://www.w3.org/2000/svg" xmlns:xlink="http://www.w3.org/1999/xlink" width="2000" zoomAndPan="magnify" viewBox="0 0 1500 1499.999933" height="2000" preserveAspectRatio="xMidYMid meet" version="1.0"><defs><g/><clipPath id="bea83efa1e"><path d="M 212.507812 637.917969 L 399.257812 637.917969 L 399.257812 924.417969 L 212.507812 924.417969 Z M 212.507812 637.917969 " clip-rule="nonzero"/></clipPath></defs><path fill="#4294ff" d="M 305.882812 845.59375 L 218.804688 911.863281 L 218.804688 644.148438 L 392.964844 644.148438 L 392.964844 911.863281 Z M 305.882812 845.59375 " fill-opacity="1" fill-rule="nonzero"/><g clip-path="url(#bea83efa1e)"><path fill="#4294ff" d="M 212.582031 637.917969 L 212.582031 924.417969 L 305.882812 853.417969 L 399.183594 924.417969 L 399.183594 637.917969 Z M 386.742188 899.257812 L 305.882812 837.847656 L 225.023438 899.257812 L 225.023438 650.375 L 386.742188 650.375 Z M 386.742188 899.257812 " fill-opacity="1" fill-rule="nonzero"/></g><g fill="#4294ff" fill-opacity="1"><g transform="translate(484.693342, 801.005071)"><g><path d="M 12.328125 0 L 12.328125 -94.828125 L 50.40625 -94.828125 C 60.21875 -94.828125 67.617188 -92.566406 72.609375 -88.046875 C 77.609375 -83.535156 80.109375 -77.300781 80.109375 -69.34375 C 80.109375 -63.59375 78.648438 -58.878906 75.734375 -55.203125 C 72.816406 -51.523438 68.457031 -48.710938 62.65625 -46.765625 L 62.65625 -45.40625 C 65.644531 -44.101562 68.054688 -42.175781 69.890625 -39.625 C 71.734375 -37.082031 73.472656 -33.300781 75.109375 -28.28125 L 84.578125 0 L 65.3125 0 L 56.046875 -28.34375 C 55.085938 -31.195312 54.015625 -33.410156 52.828125 -34.984375 C 51.640625 -36.566406 50.125 -37.710938 48.28125 -38.421875 C 46.445312 -39.140625 44.0625 -39.5 41.125 -39.5 L 31.078125 -39.5 L 31.078125 0 Z M 48.125 -54.359375 C 57.207031 -54.359375 61.75 -58.597656 61.75 -67.078125 C 61.75 -75.679688 57.207031 -79.984375 48.125 -79.984375 L 31.078125 -79.984375 L 31.078125 -54.359375 Z M 48.125 -54.359375 "/></g></g></g><g fill="#4294ff" fill-opacity="1"><g transform="translate(573.332678, 801.005071)"><g><path d="M 45.28125 0 L 24.328125 0 L 2.59375 -94.828125 L 21.28125 -94.828125 L 35.609375 -28.15625 L 37.234375 -28.15625 L 54.234375 -94.828125 L 70.25 -94.828125 L 87.5625 -28.15625 L 89.1875 -28.15625 L 103.59375 -94.828125 L 121.625 -94.828125 L 99.953125 0 L 78.9375 0 L 62.328125 -61.171875 L 60.96875 -61.171875 Z M 45.28125 0 "/></g></g></g><g fill="#000000" fill-opacity="1"><g transform="translate(697.412073, 801.005071)"><g><path d="M 45.40625 -38.140625 L 5.640625 -38.140625 L 5.640625 -53.96875 L 45.40625 -53.96875 Z M 45.40625 -38.140625 "/></g></g></g><g fill="#000000" fill-opacity="1"><g transform="translate(748.572608, 801.005071)"><g><path d="M 12.328125 0 L 12.328125 -94.828125 L 31.078125 -94.828125 L 31.078125 -56.109375 L 33.140625 -56.109375 L 64.796875 -94.828125 L 84 -94.828125 L 84 -93.21875 L 49.109375 -50.078125 L 87.625 -1.625 L 87.625 0 L 66.421875 0 L 33.140625 -40.9375 L 31.078125 -40.9375 L 31.078125 0 Z M 12.328125 0 "/></g></g></g><g fill="#000000" fill-opacity="1"><g transform="translate(836.174469, 801.005071)"><g><path d="M 50.265625 1.359375 C 37.210938 1.359375 27.523438 -1.738281 21.203125 -7.9375 C 14.890625 -14.144531 11.734375 -23.347656 11.734375 -35.546875 L 11.734375 -94.828125 L 30.09375 -94.828125 L 30.09375 -35.671875 C 30.09375 -28.753906 31.757812 -23.566406 35.09375 -20.109375 C 38.425781 -16.648438 43.484375 -14.921875 50.265625 -14.921875 C 63.710938 -14.921875 70.4375 -21.835938 70.4375 -35.671875 L 70.4375 -94.828125 L 88.796875 -94.828125 L 88.796875 -35.546875 C 88.796875 -23.347656 85.640625 -14.144531 79.328125 -7.9375 C 73.015625 -1.738281 63.328125 1.359375 50.265625 1.359375 Z M 50.265625 1.359375 "/></g></g></g><g fill="#000000" fill-opacity="1"><g transform="translate(936.679909, 801.005071)"><g><path d="M 18.296875 0.578125 C 16.003906 0.578125 13.976562 0.113281 12.21875 -0.8125 C 10.46875 -1.738281 9.128906 -3.023438 8.203125 -4.671875 C 7.273438 -6.316406 6.8125 -8.175781 6.8125 -10.25 C 6.8125 -12.320312 7.273438 -14.179688 8.203125 -15.828125 C 9.128906 -17.472656 10.46875 -18.769531 12.21875 -19.71875 C 13.976562 -20.664062 16.003906 -21.140625 18.296875 -21.140625 C 20.628906 -21.140625 22.671875 -20.675781 24.421875 -19.75 C 26.171875 -18.820312 27.507812 -17.535156 28.4375 -15.890625 C 29.375 -14.242188 29.84375 -12.382812 29.84375 -10.3125 C 29.84375 -7.15625 28.789062 -4.550781 26.6875 -2.5 C 24.59375 -0.445312 21.796875 0.578125 18.296875 0.578125 Z M 18.296875 0.578125 "/></g></g></g><g fill="#000000" fill-opacity="1"><g transform="translate(973.315785, 801.005071)"><g><path d="M 41.703125 1.359375 C 34.785156 1.359375 28.664062 -0.078125 23.34375 -2.953125 C 18.03125 -5.828125 13.878906 -10.050781 10.890625 -15.625 C 7.910156 -21.207031 6.421875 -27.910156 6.421875 -35.734375 C 6.421875 -43.609375 7.910156 -50.332031 10.890625 -55.90625 C 13.878906 -61.488281 18.007812 -65.71875 23.28125 -68.59375 C 28.5625 -71.46875 34.597656 -72.90625 41.390625 -72.90625 C 56.472656 -72.90625 66.132812 -67.4375 70.375 -56.5 L 58.046875 -47.671875 L 56.6875 -47.671875 C 55.21875 -51.046875 53.304688 -53.554688 50.953125 -55.203125 C 48.597656 -56.847656 45.410156 -57.671875 41.390625 -57.671875 C 36.191406 -57.671875 32.144531 -55.875 29.25 -52.28125 C 26.351562 -48.6875 24.90625 -43.171875 24.90625 -35.734375 C 24.90625 -28.390625 26.375 -22.910156 29.3125 -19.296875 C 32.257812 -15.679688 36.390625 -13.875 41.703125 -13.875 C 45.597656 -13.875 48.894531 -14.921875 51.59375 -17.015625 C 54.300781 -19.117188 56.238281 -22.140625 57.40625 -26.078125 L 58.765625 -26.203125 L 71.546875 -19.203125 C 69.734375 -13.148438 66.367188 -8.207031 61.453125 -4.375 C 56.546875 -0.550781 49.960938 1.359375 41.703125 1.359375 Z M 41.703125 1.359375 "/></g></g></g><g fill="#000000" fill-opacity="1"><g transform="translate(1047.041412, 801.005071)"><g><path d="M 41.578125 1.359375 C 34.578125 1.359375 28.425781 -0.078125 23.125 -2.953125 C 17.820312 -5.828125 13.710938 -10.039062 10.796875 -15.59375 C 7.878906 -21.15625 6.421875 -27.867188 6.421875 -35.734375 C 6.421875 -43.609375 7.878906 -50.332031 10.796875 -55.90625 C 13.710938 -61.488281 17.820312 -65.71875 23.125 -68.59375 C 28.425781 -71.46875 34.578125 -72.90625 41.578125 -72.90625 C 48.585938 -72.90625 54.738281 -71.46875 60.03125 -68.59375 C 65.332031 -65.71875 69.453125 -61.488281 72.390625 -55.90625 C 75.328125 -50.332031 76.796875 -43.609375 76.796875 -35.734375 C 76.796875 -27.867188 75.328125 -21.15625 72.390625 -15.59375 C 69.453125 -10.039062 65.332031 -5.828125 60.03125 -2.953125 C 54.738281 -0.078125 48.585938 1.359375 41.578125 1.359375 Z M 41.578125 -13.875 C 52.691406 -13.875 58.25 -21.160156 58.25 -35.734375 C 58.25 -43.304688 56.820312 -48.851562 53.96875 -52.375 C 51.113281 -55.90625 46.984375 -57.671875 41.578125 -57.671875 C 30.460938 -57.671875 24.90625 -50.359375 24.90625 -35.734375 C 24.90625 -21.160156 30.460938 -13.875 41.578125 -13.875 Z M 41.578125 -13.875 "/></g></g></g><g fill="#000000" fill-opacity="1"><g transform="translate(1130.169136, 801.005071)"><g><path d="M 18.296875 0.578125 C 16.003906 0.578125 13.976562 0.113281 12.21875 -0.8125 C 10.46875 -1.738281 9.128906 -3.023438 8.203125 -4.671875 C 7.273438 -6.316406 6.8125 -8.175781 6.8125 -10.25 C 6.8125 -12.320312 7.273438 -14.179688 8.203125 -15.828125 C 9.128906 -17.472656 10.46875 -18.769531 12.21875 -19.71875 C 13.976562 -20.664062 16.003906 -21.140625 18.296875 -21.140625 C 20.628906 -21.140625 22.671875 -20.675781 24.421875 -19.75 C 26.171875 -18.820312 27.507812 -17.535156 28.4375 -15.890625 C 29.375 -14.242188 29.84375 -12.382812 29.84375 -10.3125 C 29.84375 -7.15625 28.789062 -4.550781 26.6875 -2.5 C 24.59375 -0.445312 21.796875 0.578125 18.296875 0.578125 Z M 18.296875 0.578125 "/></g></g></g><g fill="#000000" fill-opacity="1"><g transform="translate(1166.805013, 801.005071)"><g><path d="M 19.265625 -80.109375 C 16.023438 -80.109375 13.382812 -81.09375 11.34375 -83.0625 C 9.3125 -85.03125 8.296875 -87.570312 8.296875 -90.6875 C 8.296875 -93.75 9.3125 -96.265625 11.34375 -98.234375 C 13.382812 -100.203125 16.023438 -101.1875 19.265625 -101.1875 C 21.429688 -101.1875 23.351562 -100.734375 25.03125 -99.828125 C 26.71875 -98.921875 28.023438 -97.675781 28.953125 -96.09375 C 29.890625 -94.519531 30.359375 -92.71875 30.359375 -90.6875 C 30.359375 -88.644531 29.890625 -86.820312 28.953125 -85.21875 C 28.023438 -83.625 26.71875 -82.375 25.03125 -81.46875 C 23.351562 -80.5625 21.429688 -80.109375 19.265625 -80.109375 Z M 10.3125 0 L 10.3125 -71.546875 L 28.28125 -71.546875 L 28.28125 0 Z M 10.3125 0 "/></g></g></g><g fill="#000000" fill-opacity="1"><g transform="translate(1205.321291, 801.005071)"><g><path d="M 35.34375 1.359375 C 29.6875 1.359375 24.679688 -0.0078125 20.328125 -2.75 C 15.984375 -5.5 12.578125 -9.648438 10.109375 -15.203125 C 7.648438 -20.765625 6.421875 -27.609375 6.421875 -35.734375 C 6.421875 -43.910156 7.6875 -50.773438 10.21875 -56.328125 C 12.75 -61.890625 16.25 -66.039062 20.71875 -68.78125 C 25.195312 -71.53125 30.378906 -72.90625 36.265625 -72.90625 C 40.710938 -72.90625 44.566406 -72.132812 47.828125 -70.59375 C 51.097656 -69.0625 53.859375 -66.675781 56.109375 -63.4375 L 57.46875 -63.765625 L 57.46875 -100.28125 L 75.4375 -100.28125 L 75.4375 0 L 57.46875 0 L 57.46875 -9.28125 L 56.109375 -9.53125 C 54.117188 -6.15625 51.394531 -3.492188 47.9375 -1.546875 C 44.476562 0.390625 40.28125 1.359375 35.34375 1.359375 Z M 41.1875 -13.875 C 46.25 -13.875 50.25 -15.679688 53.1875 -19.296875 C 56.125 -22.910156 57.59375 -28.390625 57.59375 -35.734375 C 57.59375 -43.085938 56.125 -48.582031 53.1875 -52.21875 C 50.25 -55.851562 46.25 -57.671875 41.1875 -57.671875 C 35.914062 -57.671875 31.882812 -55.90625 29.09375 -52.375 C 26.300781 -48.851562 24.90625 -43.304688 24.90625 -35.734375 C 24.90625 -28.210938 26.300781 -22.6875 29.09375 -19.15625 C 31.882812 -15.632812 35.914062 -13.875 41.1875 -13.875 Z M 41.1875 -13.875 "/></g></g></g></svg>